<?xml version="1.0" standalone="no"?>
<!DOCTYPE svg PUBLIC "-//W3C//DTD SVG 20010904//EN"
 "http://www.w3.org/TR/2001/REC-SVG-20010904/DTD/svg10.dtd">
<svg version="1.0" xmlns="http://www.w3.org/2000/svg"
 width="621.000000pt" height="144.000000pt" viewBox="0 0 621.000000 144.000000"
 preserveAspectRatio="xMidYMid meet">

<g transform="translate(0.000000,144.000000) scale(0.100000,-0.100000)"
fill="#000000" stroke="none">
<path d="M2700 871 c-26 -10 -49 -26 -55 -39 -5 -12 -13 -22 -17 -22 -5 0 -8
-34 -8 -76 0 -72 2 -78 33 -108 36 -37 88 -50 161 -40 71 10 54 24 -29 24 -67
0 -79 3 -100 25 -14 13 -25 31 -25 40 0 8 -4 15 -10 15 -16 0 -12 73 6 108 8
18 22 32 29 32 7 0 15 5 17 12 3 7 31 11 81 11 42 0 77 3 77 8 0 5 -9 9 -19 9
-11 0 -23 5 -26 10 -9 15 -63 10 -115 -9z"/>
<path d="M3690 870 c0 -18 7 -20 75 -20 45 0 75 -4 75 -10 0 -11 -27 -56 -45
-76 -5 -6 -17 -22 -25 -34 -8 -12 -19 -28 -25 -34 -5 -6 -16 -23 -24 -38 -8
-16 -18 -28 -23 -28 -4 0 -8 -9 -8 -20 0 -19 7 -20 95 -20 57 0 95 4 95 10 0
6 -32 10 -75 10 -41 0 -75 4 -75 8 0 5 9 19 20 32 11 12 22 31 25 41 4 11 10
19 14 19 5 0 14 14 21 30 7 17 16 30 20 30 4 0 13 14 20 30 7 17 16 30 20 30
12 0 20 28 14 45 -5 12 -26 15 -100 15 -87 0 -94 -1 -94 -20z"/>
<path d="M3966 882 c-2 -4 -1 -14 5 -22 7 -12 9 -10 9 8 0 23 -5 28 -14 14z"/>
<path d="M3337 873 c-4 -3 -7 -24 -7 -45 l0 -38 -56 0 c-56 0 -71 -8 -92 -47
-23 -42 -12 -105 24 -140 8 -8 40 -13 88 -13 l76 0 0 145 c0 114 -3 145 -13
145 -8 0 -17 -3 -20 -7z m-7 -183 l0 -80 -46 0 c-59 0 -74 16 -74 80 0 65 13
79 73 80 l47 0 0 -80z"/>
<path d="M3967 794 c-4 -4 -7 -52 -7 -106 0 -75 3 -99 13 -96 8 3 13 34 15 98
3 86 -4 120 -21 104z"/>
<path d="M2945 770 c-3 -11 -11 -20 -16 -20 -5 0 -9 -25 -9 -55 0 -80 24 -105
102 -105 55 0 59 2 78 33 24 39 26 87 4 133 -16 34 -17 34 -84 34 -60 0 -69
-3 -75 -20z m129 -22 c22 -31 20 -90 -3 -116 -13 -16 -30 -22 -58 -22 -37 0
-41 3 -58 40 -17 39 -17 41 0 80 17 38 21 40 61 40 33 0 46 -5 58 -22z"/>
<path d="M3463 775 c-7 -8 -13 -19 -13 -25 0 -5 -4 -10 -10 -10 -5 0 -10 -20
-10 -45 0 -25 5 -45 10 -45 6 0 10 -7 10 -16 0 -31 27 -44 94 -44 37 0 66 4
66 10 0 6 -25 10 -56 10 -62 0 -84 14 -84 54 0 26 1 26 76 26 l77 0 -6 36 c-3
20 -11 42 -18 50 -16 19 -119 18 -136 -1z m113 -19 c8 -8 14 -22 14 -30 0 -13
-12 -16 -60 -16 -47 0 -60 3 -60 15 0 41 74 62 106 31z"/>
<path d="M4060 688 c0 -91 1 -98 20 -98 18 0 20 7 20 76 0 87 10 104 64 104
l36 0 0 -90 c0 -83 1 -90 20 -90 18 0 20 7 20 76 0 87 11 104 63 104 43 0 57
-27 57 -115 0 -37 4 -65 10 -65 17 0 13 169 -4 186 -17 16 -106 20 -106 4 0
-5 -9 -10 -20 -10 -11 0 -20 5 -20 10 0 7 -29 10 -80 8 l-80 -3 0 -97z"/>
<path d="M4465 780 c-4 -6 18 -10 59 -10 l66 0 0 -30 c0 -30 0 -30 -56 -30
-64 0 -84 -14 -84 -58 0 -59 5 -62 96 -62 l84 0 0 75 c0 41 -5 86 -12 100 -10
23 -16 25 -79 25 -37 0 -71 -4 -74 -10z m125 -130 l0 -40 -49 0 c-41 0 -51 4
-56 20 -3 11 -3 29 0 40 5 16 15 20 56 20 l49 0 0 -40z"/>
</g>
</svg>
