<?xml version="1.0"?><svg width="640" height="480" xmlns="http://www.w3.org/2000/svg">
 <title>laurel crown brown</title>
 <metadata id="metadata17720">image/svg+xml</metadata>
 <g>
  <path fill="#efef83" stroke="black" stroke-width="1.015004" d="m239.214905,466.196167c0.001526,-0.749237 44.536865,-19.577728 52.513458,-22.202057c11.009003,-3.622223 29.15506,-6.228363 35.586761,-5.110931l4.674561,0.811554l-5.220703,5.2966c-2.870789,2.912628 -7.641113,6.725067 -10.600708,8.471558c-7.14093,4.213684 -24.612244,9.253204 -37.987244,10.956909c-9.421936,1.199829 -38.968414,2.546997 -38.966125,1.776367zm177.327911,-0.412964c-19.997406,-1.023865 -21.518585,-1.260223 -40.161011,-6.238037c-11.153748,-2.978149 -14.006134,-4.417603 -22.61618,-11.412659l-9.853149,-8.004089l4.350586,-1.03299c11.19281,-2.65744 47.112732,6.108246 62.844574,15.33548c2.989502,1.753662 7.147827,3.622253 9.240387,4.152679c4.770355,1.208893 18.265594,7.056824 18.265594,7.914459c0,0.351257 -0.856323,0.544708 -1.902618,0.429169c-1.046265,-0.114899 -10.122009,-0.629761 -20.168182,-1.144012zm-217.663544,-22.67923c-8.371811,-2.205566 -18.20047,-4.733093 -21.841034,-5.616089l-6.618561,-1.606262l11.18515,-1.641327c6.1521,-0.902466 17.824402,-2.793091 25.938858,-4.200745c22.626144,-3.924713 45.28981,-2.784668 59.950058,3.01651l3.919342,1.550385l-4.893616,3.711151c-12.818939,9.719452 -41.2724,11.732758 -67.640198,4.786377zm226.141052,1.527649c-10.88797,-3.400146 -20.833801,-9.318115 -17.986786,-10.702332c5.948395,-2.890503 25.796417,-6.448456 35.975861,-6.448456c9.385956,0 34.103882,3.283356 57.685913,7.663208c4.444824,0.825195 2.567505,1.55304 -16.889923,6.546478c-19.095093,4.900604 -23.71991,5.612183 -36.205627,5.570679c-10.249207,-0.034454 -16.660187,-0.781097 -22.579437,-2.629578zm-125.898254,-10.662109c-9.608826,-2.417816 -29.602417,-22.071533 -33.247559,-32.682343l-1.051636,-3.059967l6.574158,2.911926c3.616028,1.602386 11.309204,4.311707 17.096741,6.02124c19.249054,5.685547 28.101868,11.832703 33.650452,23.365509l2.350677,4.885651l-10.294342,-0.118805c-5.661926,-0.065582 -12.447449,-0.66095 -15.078491,-1.323212zm54.25293,-0.912842c0,-3.602722 10.851959,-15.352356 17.944672,-19.428406c3.130432,-1.799103 10.079102,-4.521393 15.442261,-6.050446c5.36319,-1.529022 13.126099,-4.194214 17.250702,-5.921875l7.500214,-3.142426l-0.969727,3.354736c-2.342255,8.105316 -17.182526,24.517273 -26.419098,29.217926c-5.304199,2.699615 -9.43573,3.593658 -18.774963,4.063049c-11.261719,0.566193 -11.97406,0.442169 -11.97406,-2.09256zm-95.894501,-6.491913c-16.450287,-5.095428 -28.090424,-16.632721 -34.306854,-34.003662c-2.103302,-5.877075 -4.247971,-13.250702 -4.765747,-16.386627l-0.942886,-5.701782l20.500626,17.598816c21.154755,18.15979 25.46933,23.594055 26.786011,33.738068c0.765198,5.897858 -0.631897,6.811371 -7.271149,4.755188zm154.147217,-4.349365c1.799225,-11.647095 9.606537,-20.569824 38.557861,-44.0672l9.288696,-7.538483l-1.235504,6.789948c-3.959961,21.755341 -17.04007,40.700714 -32.383575,46.904999c-4.284698,1.73288 -9.421143,3.156097 -11.414917,3.163208c-3.35025,0.011658 -3.563965,-0.386963 -2.812561,-5.252472zm-238.625259,-7.795685c-17.521851,-4.722076 -22.059326,-6.679596 -38.834366,-16.752167c-9.288208,-5.577148 -16.67939,-10.27066 -16.424789,-10.429047c2.299843,-1.432251 57.187057,3.762451 61.994919,5.867981c1.31897,0.577209 6.849884,2.932739 12.291168,5.234955c5.441315,2.301666 12.566925,6.223175 15.83371,8.714355l5.939163,4.529236l-5.463516,1.982208c-9.079559,3.294952 -24.85965,3.675446 -35.336288,0.852478zm302.360611,1.064117c-3.6474,-0.622589 -7.602783,-1.832855 -8.790771,-2.688538c-2.801819,-2.019226 -0.137878,-4.696106 11.147614,-11.20105c12.486511,-7.198303 26.585327,-10.902344 47.193909,-12.400208c26.534058,-1.928253 33.744751,-2.147095 32.926636,-1.000458c-1.747925,2.448364 -33.096619,19.717316 -40.413696,22.263062c-17.064636,5.935516 -28.639648,7.319122 -42.06369,5.027191zm-273.801453,-17.483887c-9.559814,-6.264709 -18.15451,-16.934601 -20.181976,-25.056152c-0.968933,-3.881958 -1.518127,-14.488251 -1.247742,-24.114746l0.481781,-17.18399l5.562332,9.253235c3.059189,5.088898 7.355392,11.529541 9.547546,14.312256c10.645157,13.515656 16.58432,31.831879 13.666061,42.145996l-1.377945,4.870087l-6.450058,-4.226685zm266.332703,-9.041565c0.805786,-14.255798 3.39624,-21.291138 11.452484,-31.099487c1.892639,-2.30426 6.446991,-9.075317 10.121246,-15.0466l6.67984,-10.857544l1.06543,11.112122c1.282227,13.363007 -0.860931,30.50473 -4.700623,37.601166c-2.998688,5.542023 -15.922546,17.581238 -21.81192,20.318542l-3.580078,1.664032l0.773621,-13.69223zm-324.011719,-16.295746c-5.133392,-0.985565 -11.635529,-2.826874 -14.450073,-4.090332c-9.18457,-4.124725 -24.8395,-15.897095 -31.717873,-23.851807c-3.703896,-4.283844 -8.791023,-9.721344 -11.304871,-12.084015c-5.15583,-4.846069 -4.851906,-5.071991 3.225792,-2.393829c3.156326,1.046631 9.588074,2.560028 14.292686,3.363159c9.826508,1.677094 26.846672,8.432587 36.422554,14.457031c7.278046,4.578613 18.608734,15.564728 22.09993,21.428192c2.07724,3.487793 2.041229,3.79425 -0.44426,3.811127c-1.48671,0.009766 -4.072556,0.273346 -5.746902,0.585632c-1.674362,0.312256 -7.244354,-0.238953 -12.376984,-1.225159zm373.50119,1.00766c-2.302368,-0.309052 -4.185913,-0.862885 -4.185913,-1.230347c0,-2.626251 9.309387,-13.450714 16.562134,-19.25769c10.014038,-8.01767 30.561401,-17.426758 42.875549,-19.633575c4.563538,-0.818054 11.299255,-2.343811 14.968933,-3.391693c7.906128,-2.257477 9.615723,-1.595886 4.053406,1.569214c-2.199036,1.251801 -6.355896,5.314209 -9.237366,9.028595c-8.904175,11.477661 -13.767944,15.413422 -32.470093,26.276184c-7.049072,4.094238 -24.707275,7.694366 -32.56665,6.639313zm-360.761932,-17.561188c-3.94693,-4.003937 -5.834229,-7.724182 -7.738373,-15.248444c-1.384842,-5.473267 -2.51767,-12.248932 -2.51767,-15.056335c0,-7.350922 5.556183,-29.732788 8.990707,-36.216278c2.889923,-5.45575 2.93129,-5.476501 3.06456,-1.564758c0.073532,2.180878 2.519974,12.293091 5.435928,22.471497c3.321152,11.593842 5.308792,21.749542 5.32106,27.189026c0.019135,8.589691 -3.361755,21.589203 -5.98053,22.994781c-0.74527,0.399994 -3.704132,-1.656219 -6.575684,-4.569489zm355.258636,1.582275c-6.165161,-13.527313 -5.929993,-22.37088 1.254639,-47.196594c2.524536,-8.724091 4.598755,-17.463074 4.609497,-19.419281c0.063538,-11.558105 6.742554,1.499115 10.699463,20.915833c3.802979,18.662933 -1.125854,40.408569 -10.527222,46.444763l-4.407227,2.830109l-1.62915,-3.574829zm-395.744949,-37.347992c-10.912018,-3.365051 -21.840271,-10.819855 -28.357346,-19.343964c-2.93956,-3.84494 -9.427383,-14.148651 -14.417305,-22.89743l-9.07267,-15.90683l7.171356,3.580658c3.944252,1.969208 11.174805,5.995911 16.067917,8.94809c4.893112,2.95282 11.298744,6.634125 14.234779,8.181946c11.02063,5.809601 23.52314,22.747437 25.760704,34.899628c1.130081,6.137451 0.639343,6.24649 -11.387436,2.537903zm432.071609,0.683716c0,-1.114166 2.150757,-6.86853 4.778748,-12.787811c5.380005,-12.114532 12.498718,-19.745941 25.485413,-27.319519c11.872986,-6.924347 31.236938,-17.342377 32.243408,-17.346893c1.606201,-0.007782 -18.341431,33.664063 -23.621094,39.872925c-6.178955,7.265839 -16.392822,13.688324 -27.248657,17.134583c-9.455688,3.000885 -11.637817,3.085297 -11.637817,0.446716zm-421.481567,-17.102142c-4.096291,-9.508392 -4.146385,-21.532043 -0.136642,-32.805725c3.26088,-9.168854 22.803909,-36.685745 22.73114,-32.005219c-0.240509,15.385468 -3.282089,46.236938 -5.033035,51.048615c-2.987976,8.209839 -7.589798,15.846466 -11.310791,18.768738c-3.010162,2.363983 -3.109283,2.28479 -6.250671,-5.006409zm416.509766,4.917511c-3.675049,-3.544312 -9.645569,-14.801849 -11.624817,-21.920929c-1.555603,-5.594055 -5.046021,-48.541199 -4.022766,-49.487808c1.139038,-1.052475 19.490356,25.324966 22.322876,32.085678c4.688354,11.193268 4.643188,26.737793 -0.103455,35.35733c-1.901794,3.453461 -3.618347,6.279022 -3.815186,6.279022c-0.196838,0 -1.436951,-1.040771 -2.756653,-2.313293zm-444.353111,-47.395264c-13.918282,-7.960571 -21.776772,-21.41127 -26.254738,-44.938446c-1.259369,-6.617249 -2.780624,-13.160492 -3.380592,-14.540787c-0.836952,-1.926392 0.187431,-1.587463 4.401299,1.454987c3.020676,2.181503 7.16629,4.972656 9.212448,6.203018c6.40609,3.851395 22.7323,24.95491 25.716354,33.240738c3.372864,9.365555 3.797119,23.345383 0.708511,23.345383c-1.13913,0 -5.820602,-2.144501 -10.403282,-4.764893zm466.57943,-5.073944c1.127502,-11.583435 4.642456,-20.295181 11.800171,-29.245209c5.354004,-6.694519 28.303406,-27.009171 30.511597,-27.009171c0.684021,0 0.567566,1.542633 -0.258118,3.428741c-0.825623,1.885437 -2.463257,8.578003 -3.638977,14.870605c-4.13385,22.124786 -12.838867,36.314346 -26.681885,43.489273c-12.327148,6.390045 -12.868652,6.134857 -11.732788,-5.534241zm-450.336861,-6.485443c-0.691338,-4.805176 -0.226265,-9.782394 1.451546,-15.532227c4.2043,-14.407715 8.868698,-20.961319 23.679474,-33.271271c7.546127,-6.271851 13.720444,-11.099731 13.720444,-10.729004c0,0.370728 -1.095306,3.760513 -2.434189,7.532059c-7.40979,20.877563 -12.042236,32.325943 -14.778214,36.520157c-4.203537,6.443878 -18.136841,22.551361 -19.5075,22.551361c-0.612839,0 -1.572037,-3.182037 -2.131561,-7.071075zm438.011971,0.684296c-12.346313,-12.715714 -18.989441,-25.650269 -29.986877,-58.384583l-1.110657,-3.304733l3.777649,3.304733c2.078064,1.817276 8.930237,7.656052 15.227844,12.974136c9.75592,8.239746 12.059143,11.075043 15.567932,19.167419c4.378174,10.097931 6.44928,24.681564 4.221924,29.733475c-1.300598,2.951477 -1.554199,2.836578 -7.697815,-3.490448zm-448.764664,-43.700287c-12.148941,-6.433533 -17.000618,-20.687347 -15.088425,-44.329453c0.651207,-8.050827 1.200851,-16.523621 1.221535,-18.829147c0.036461,-4.074768 0.182068,-3.982574 5.231049,3.304703c2.856377,4.122803 6.141914,8.408569 7.301025,9.523987c3.130432,3.011932 9.139839,15.495865 11.333519,23.544708c1.92804,7.074326 1.451241,14.505112 -1.552208,24.191406c-1.814987,5.853714 -2.11615,5.946564 -8.446495,2.593796zm460.262344,-0.47464c-1.235535,-1.888687 -1.949402,-8.038452 -1.956238,-16.853439c-0.009949,-13.003357 0.299438,-14.421982 4.912781,-22.472153c2.708435,-4.725296 7.916077,-12.60083 11.573486,-17.500122l6.648438,-8.907822l1.305237,12.873505c2.294739,22.63446 0.654846,35.250198 -5.933838,45.655243c-2.701538,4.266251 -10.65741,10.179077 -13.696716,10.179077c-0.49939,0 -1.783142,-1.338135 -2.853149,-2.974289zm-445.667191,-8.337112c0,-11.176346 7.560524,-23.4272 20.617584,-33.408279c5.497208,-4.202652 32.184402,-17.407898 35.180038,-17.407898c0.448853,0 -1.343475,2.230209 -3.983688,4.957062c-2.639465,2.726242 -8.917191,10.310242 -13.949478,16.85347c-10.079895,13.105942 -20.033401,22.647461 -29.766998,28.536865c-7.753082,4.690262 -8.097458,4.710388 -8.097458,0.468781zm431.495621,-0.098022c-9.023682,-5.178513 -21.893188,-16.352905 -25.176025,-21.859253c-4.488403,-7.528809 -12.172424,-17.166412 -17.70874,-22.211151c-2.76889,-2.523666 -5.034576,-5.090836 -5.034576,-5.705048c0,-0.614212 6.894287,2.014664 15.32132,5.842026c12.012329,5.455734 17.42688,8.896133 25.065674,15.928284c9.711426,8.940292 11.888306,12.837158 15.185669,27.187714c1.195679,5.201859 0.176147,5.310272 -7.65332,0.817429zm-429.494728,-44.361923c-9.856689,-14.508331 -9.475243,-23.936874 2.177826,-53.832634l4.336342,-11.125053l5.145416,13.55587c4.054932,10.681595 5.141815,15.703629 5.128021,23.683022c-0.019897,11.110748 -4.13765,22.683151 -10.278107,28.882263l-3.392014,3.42485l-3.117485,-4.588318zm429.257301,2.702209c-0.911499,-0.983612 -3.622192,-5.059677 -6.024231,-9.058441c-4.060303,-6.761398 -4.35907,-8.288452 -4.268616,-21.811203c0.08728,-12.976723 0.603516,-15.677643 4.804749,-25.115288c2.843994,-6.388695 5.058289,-9.790176 5.594543,-8.592293c6.668335,14.901146 13.03717,35.004135 13.070129,41.259109c0.029846,5.584915 -4.936584,18.046768 -8.876526,22.272171c-2.162354,2.319809 -2.942871,2.509369 -4.300049,1.045944zm-413.633942,-8.067047c5.242157,-14.3564 26.903961,-28.077179 52.649811,-33.347862c15.132843,-3.098267 16.199066,-2.618462 7.209106,3.24823c-4.434082,2.893089 -10.495789,7.238594 -13.471512,9.6558c-12.743088,10.35437 -37.608856,23.371994 -44.706909,23.405121c-2.177582,0.009735 -2.535294,-0.620041 -1.680496,-2.961288zm397.303864,2.023758c-5.417542,-1.203079 -21.432007,-9.538925 -29.829895,-15.527008c-4.604889,-3.28331 -13.299133,-9.379211 -19.321838,-13.546158c-6.022644,-4.167587 -10.717896,-7.78006 -10.432953,-8.027412c1.43689,-1.247253 20.630829,3.027489 31.761566,7.074318c14.273438,5.188232 25.97644,13.67662 31.261475,22.673401c4.828491,8.218979 4.417236,9.098068 -3.438354,7.352859zm-384.187744,-43.001724c-2.303223,-9.217506 -0.952087,-20.307495 3.398499,-27.886948c2.150024,-3.74688 8.305969,-11.441887 13.679092,-17.099533l9.769669,-10.28751l1.063904,8.627361c2.333862,18.924591 -3.008636,34.661331 -15.387909,45.324753c-4.430252,3.816353 -8.744827,6.939285 -9.588135,6.939285c-0.84256,0 -2.163055,-2.52758 -2.93512,-5.617409l0,0zm366.138916,-0.213615c-4.270142,-3.420273 -8.947052,-8.977287 -11.391205,-13.535072c-3.710266,-6.91851 -4.203522,-9.540215 -4.688354,-24.916603l-0.540771,-17.183937l5.844208,5.827759c16.942017,16.894356 21.549194,24.186188 22.814575,36.109154c0.842529,7.933937 -1.36499,19.546608 -3.710266,19.51609c-0.595886,-0.007782 -4.342957,-2.62561 -8.328186,-5.81739zm-343.38562,-4.833084c13.005035,-10.686119 26.02771,-14.467407 49.705475,-14.431053c16.735992,0.025978 19.705582,1.400459 9.902954,4.584419c-4.022751,1.306297 -12.79364,4.729843 -19.491089,7.607376c-13.342834,5.732948 -27.502167,8.87925 -40.11734,8.91497l-8.152008,0.023369l8.152008,-6.699081zm314.099548,4.820129c-5.022278,-0.890793 -15.639069,-4.316292 -23.592743,-7.611267c-7.95282,-3.295647 -17.021698,-6.789955 -20.152863,-7.765121c-8.201019,-2.553551 -4.358246,-3.850754 11.480774,-3.874794c24.334198,-0.036354 39.762756,4.766869 52.731781,16.417816l5.246002,4.712318l-8.289886,-0.12986c-4.559692,-0.071411 -12.399933,-0.858322 -17.423065,-1.749092zm-272.096436,-27.148773c-3.148804,-0.530441 -6.157471,-1.340065 -6.685974,-1.799088c-1.72644,-1.49913 2.459473,-4.515594 10.55632,-7.608025c12.156357,-4.642189 31.07225,-4.351318 48.659988,0.748604c7.324738,2.124374 13.318298,4.334465 13.318298,4.911652c0,0.577194 -2.568237,1.05439 -5.707855,1.060234c-3.139618,0.005844 -13.242493,0.886887 -22.451492,1.956863c-17.86882,2.076988 -28.470322,2.28215 -37.689285,0.729759zm215.777802,-0.02726c-5.022339,-0.592766 -14.816559,-1.526413 -21.764465,-2.074379c-6.947144,-0.547325 -12.084381,-1.460831 -11.41568,-2.028946c2.570496,-2.184097 24.580048,-7.726173 34.01886,-8.565659c11.424866,-1.016739 26.445923,1.727036 33.567688,6.130943c5.073669,3.137215 5.49646,4.543518 1.744049,5.795929c-4.351379,1.451759 -26.321075,1.902985 -36.150452,0.742111zm-237.355347,-4.792168c-3.332642,-11.530846 6.646912,-25.831421 25.921997,-37.143456c4.944977,-2.90218 10.459808,-5.949162 12.255966,-6.771767l3.264465,-1.494595l-2.714523,9.164291c-3.819016,12.894272 -8.109863,19.913418 -16.93129,27.696087c-6.246323,5.510254 -17.135056,11.993095 -20.145233,11.993095c-0.360764,0 -1.104507,-1.549782 -1.651382,-3.443657zm282.102814,0.807022c-7.153198,-3.278763 -20.8974,-16.382751 -24.422302,-23.285015c-2.911285,-5.701794 -7.990326,-21.597599 -7.127899,-22.309834c0.275757,-0.22789 5.46814,2.37759 11.538269,5.790089c12.280487,6.904861 25.51532,19.488796 27.950226,26.574818c1.852051,5.389481 1.278381,14.833618 -0.932892,15.372498c-0.837189,0.203857 -3.989868,-0.760292 -7.005402,-2.142555zm-233.428299,-24.131012c3.174088,-12.802067 11.031952,-18.068859 34.946426,-23.423943c5.860291,-1.312157 11.92276,-2.837273 13.47229,-3.388489c5.343994,-1.900383 -1.586304,7.034069 -13.443207,17.33131c-11.391205,9.892117 -20.309845,13.777271 -31.629837,13.777271c-4.180557,0 -4.355194,-0.224632 -3.345673,-4.29615zm177.368484,2.119194c-3.710236,-1.127769 -9.454071,-3.924774 -12.763763,-6.216015c-5.645813,-3.907234 -22.746368,-22.105305 -21.659485,-23.049332c0.273407,-0.237621 3.826691,0.463573 7.895386,1.55822c4.068726,1.09465 11.754272,3.06126 17.077606,4.370808c14.824158,3.645592 26.090515,13.502647 26.090515,22.826637c0,2.162697 -0.965088,2.674305 -4.947296,2.623024c-2.720642,-0.034424 -7.982697,-0.985584 -11.692963,-2.113342z" id="path17799"/>
  <title>Layer 1</title>
  <g display="inline" id="layer3"/>
 </g>
</svg>